<svg version="1.0" xmlns="http://www.w3.org/2000/svg"
 width="378.000000pt" height="95.000000pt" viewBox="0 0 378.000000 95.000000"
 preserveAspectRatio="xMidYMid meet">
<metadata>
Created by potrace 1.16, written by Peter Selinger 2001-2019
</metadata>
<g transform="translate(0.000000,95.000000) scale(0.100000,-0.100000)"
fill="#000000" stroke="none">
<path d="M330 840 c-23 -23 -26 -58 -7 -83 25 -35 382 -157 530 -182 33 -5 37
-9 37 -35 0 -27 3 -30 30 -30 17 0 33 -1 38 -2 4 -2 8 9 10 25 3 26 5 27 63
27 l60 0 -35 -43 c-34 -42 -35 -45 -18 -60 17 -15 21 -13 67 43 l50 59 691 0
692 1 55 -59 c50 -54 56 -58 70 -43 15 14 13 19 -19 59 l-35 43 60 0 c58 0 61
-1 61 -25 0 -23 4 -25 43 -25 42 0 43 1 39 29 -4 28 -1 30 34 36 156 27 505
146 531 182 28 37 -1 103 -43 103 -9 0 -83 -25 -164 -55 -185 -68 -271 -92
-385 -105 -124 -14 -1745 -13 -1872 1 -112 12 -209 39 -393 108 -74 28 -143
51 -152 51 -10 0 -27 -9 -38 -20z"/>
<path d="M841 472 c-125 -63 -102 -262 34 -288 86 -16 174 40 189 121 24 125
-110 225 -223 167z m119 -37 c40 -21 60 -53 60 -98 0 -83 -81 -137 -154 -102
-85 41 -87 164 -3 200 42 18 62 18 97 0z"/>
<path d="M850 395 c-53 -56 -13 -145 65 -145 38 0 85 46 85 84 0 21 -24 64
-44 78 -25 18 -83 8 -106 -17z"/>
<path d="M2715 472 c-45 -29 -63 -52 -76 -103 -11 -43 -10 -50 12 -95 34 -68
67 -89 139 -89 44 0 66 5 87 21 86 64 87 193 1 257 -39 29 -124 34 -163 9z
m120 -36 c86 -36 85 -160 -1 -201 -73 -35 -154 19 -154 102 0 47 22 80 64 99
40 17 49 17 91 0z"/>
<path d="M2744 412 c-20 -14 -44 -57 -44 -78 0 -13 12 -36 26 -53 33 -39 80
-42 120 -7 59 50 20 146 -59 146 -18 0 -37 -4 -43 -8z"/>
</g>
</svg>
